# xmcd
#
# Track frame offsets:
#	150
#	25019
#	51144
#	75635
#	107621
#	127925
#	151357
#	185346
#	212738
#	235281
#
# Disc length: 3677 seconds
#
# Revision: 1
# Processed by: cddbd v1.5.1PL2 Copyright (c) Steve Scherf et al.
# Submitted via: EasyCDDAExtractor 9.0.0.1
#
DISCID=760e5b0a
DTITLE=Saxon - Brixton Academy London 19-12-01
DYEAR=2001
DGENRE=Hard Rock
TTITLE0=Killing Ground
TTITLE1=747 (Strangers In The Night)
TTITLE2=Dogs Of War
TTITLE3=Denim and Leather
TTITLE4=Dragons Lair
TTITLE5=Motorcycle Man
TTITLE6=Dallas 1 PM
TTITLE7=Strong Arm Of The Law
TTITLE8=Princess Of The Night
TTITLE9=Wheels Of Steel
EXTD=
EXTT0=
EXTT1=
EXTT2=
EXTT3=
EXTT4=
EXTT5=
EXTT6=
EXTT7=
EXTT8=
EXTT9=
PLAYORDER=
